# AST/ASF file generated using VICON BodyLanguage
# -----------------------------------------------
:version 1.10
:name VICON
:units
  mass 1.0
  length 0.45
  angle deg
:documentation
   .ast/.asf automatically generated from VICON data using
   VICON BodyBuilder and BodyLanguage model FoxedUp or BRILLIANT.MOD
:root
   order TX TY TZ RX RY RZ
   axis XYZ
   position 0 0 0  
   orientation 0 0 0 
:bonedata
  begin
     id 1 
     name lhipjoint
     direction 0.630305 -0.712092 0.309259 
     length 2.29033 
     axis 0 0 0  XYZ
  end
  begin
     id 2 
     name lfemur
     direction 0.34202 -0.939693 0  
     length 6.43538  
     axis 0 0 20  XYZ
    dof rx ry rz
    limits (-160.0 20.0)
           (-70.0 70.0)
           (-60.0 70.0)
  end
  begin
     id 3 
     name ltibia
     direction 0.34202 -0.939693 0   
     length 7.43097   
     axis 0 0 20   XYZ
    dof rx
    limits (-10.0 170.0)
  end
  begin
     id 4 
     name lfoot
     direction 0.0334653 -0.0919451 0.995202   
     length 1.78438   
     axis -90 7.62852e-016 20   XYZ
    dof rx rz
    limits (-45.0 90.0)
           (-70.0 20.0)
  end
  begin
     id 5 
     name ltoes
     direction 1.53535e-011 -4.21933e-011 1   
     length 0.90832   
     axis -90 7.62852e-016 20   XYZ
    dof rx
    limits (-90.0 20.0)
  end
  begin
     id 6 
     name rhipjoint
     direction -0.682059 -0.67077 0.291312   
     length 2.43143  
     axis 0 0 0  XYZ 
  end
  begin
     id 7 
     name rfemur
     direction -0.34202 -0.939693 0   
     length 6.63488   
     axis 0 0 -20   XYZ
    dof rx ry rz
    limits (-160.0 20.0)
           (-70.0 70.0)
           (-70.0 60.0)
  end
  begin
     id 8 
     name rtibia
     direction -0.34202 -0.939693 0   
     length 6.86532   
     axis 0 0 -20   XYZ
    dof rx
    limits (-10.0 170.0)
 end
 begin
     id 9 
     name rfoot
     direction -0.105199 -0.289033 0.951521   
     length 1.77126  
     axis -90 -7.62852e-016 -20   XYZ
    dof rx rz
    limits (-45.0 90.0)
           (-20.0 70.0)
  end
  begin
     id 10 
     name rtoes
     direction -1.53551e-011 -4.21978e-011 1   
     length 0.889273   
     axis -90 -7.62852e-016 -20   XYZ
    dof rx
    limits (-90.0 20.0)
  end
  begin
     id 11 
     name lowerback
     direction -0.0514305 0.998089 0.034245   
     length 2.02077   
     axis 0 0 0   XYZ
    dof rx ry rz
    limits (-20.0 45.0)
           (-30.0 30.0)
           (-30.0 30.0)
  end
  begin
     id 12 
     name upperback
     direction 0.0203189 0.999449 -0.0262315   
     length 2.01413   
     axis 0 0 0   XYZ
    dof rx ry rz
    limits (-20.0 45.0)
           (-30.0 30.0)
           (-30.0 30.0)
  end
  begin
     id 13 
     name thorax
     direction 0.0452736 0.998142 -0.0407729   
     length 2.02986   
     axis 0 0 0   XYZ
    dof rx ry rz
    limits (-20.0 45.0)
           (-30.0 30.0)
           (-30.0 30.0)
  end
  begin
     id 14 
     name lowerneck
     direction -0.0180464 0.999645 -0.0195774   
     length 1.59034   
     axis 0 0 0   XYZ
    dof rx ry rz
    limits (-20.0 45.0)
           (-30.0 30.0)
           (-30.0 30.0)
  end
  begin
     id 15 
     name upperneck
     direction 0.0732272 0.979935 -0.18538   
     length 1.57486   
     axis 0 0 0   XYZ
    dof rx ry rz
    limits (-20.0 45.0)
           (-30.0 30.0)
           (-30.0 30.0)
  end
  begin
     id 16
     name head
     direction 0.0252963 0.997909 -0.059472  
     length 1.60334  
     axis 0 0 0   XYZ
    dof rx ry rz
    limits (-20.0 45.0)
           (-30.0 30.0)
           (-30.0 30.0)
  end
  begin
     id 17 
     name lclavicle
     direction 0.943819 0.330449 0.00315172  
     length 3.50322  
     axis 0 0 0   XYZ
    dof ry rz
    limits (-20.0 10.0)
           (0.0 20.0)
  end
  begin
     id 18 
     name lhumerus
     direction 1 -4.48949e-011 2.22502e-028   
     length 4.63208   
     axis 180 -30 -90   XYZ
    dof rx ry rz
    limits (-60.0 90.0)
           (-90.0 90.0)
           (-90.0 90.0)
  end
  begin
     id 19
     name lradius
     direction 1 -4.48967e-011 -4.10197e-027   
     length 3.41924   
     axis 180 -30 -90   XYZ
    dof rx
    limits (-10.0 170.0)
  end
  begin
     id 20
     name lwrist
     direction 1 -4.48987e-011 -1.24264e-027   
     length 1.70962   
     axis 2.50585e-015 90 90   XYZ
    dof ry
    limits (-180.0 0.0)
 end
  begin
     id 21 
     name lhand
     direction 1 -4.48983e-011 -2.48528e-027   
     length 0.62537   
     axis 1.58582e-015 90 90   XYZ
    dof rx rz
    limits (-90.0 90.0)
           (-45.0 45.0)
  end
  begin
     id 22 
     name lfingers
     direction 1 -4.48896e-011 -4.97056e-027   
     length 0.50419   
     axis 3.17164e-015 90 90   XYZ
    dof rx
    limits (0.0 90.0)
  end
  begin
     id 23
     name lthumb
     direction 0.707107 -6.34803e-011 0.707107   
     length 0.723919   
     axis -90 45 2.85299e-015   XYZ
    dof rx rz
    limits (-45.0 45.0)
           (-45.0 45.0)
  end
  begin
     id 24 
     name rclavicle
     direction -0.964499 0.260664 -0.0423695   
     length 3.91997  
     axis 0 0 0   XYZ 
    dof ry rz
    limits (-10.0 20.0)
           (-20.0 0.0)
  end
  begin
     id 25 
     name rhumerus
     direction -1 -4.48957e-011 -1.98656e-027  
     length 4.4064   
     axis 180 30 90   XYZ
    dof rx ry rz
    limits (-90.0 60.0)
           (-90.0 90.0)
           (-90.0 90.0)
  end
  begin
     id 26 
     name rradius
     direction -1 -4.48968e-011 1.96972e-027   
     length 3.44675   
     axis 180 30 90   XYZ
    dof rx
    limits (-10.0 170.0)
  end
  begin
     id 27 
     name rwrist
     direction -1 -4.48974e-011 -1.24264e-027   
     length 1.72338   
     axis 2.50585e-015 -90 -90   XYZ
    dof ry
    limits (-180.0 0.0)
  end
  begin
     id 28
     name rhand
     direction -1 -4.48901e-011 -2.48528e-027   
     length 0.513674   
     axis 1.58582e-015 -90 -90   XYZ
    dof rx rz
    limits (-90.0 90.0)
           (-45.0 45.0)
  end
  begin
     id 29
     name rfingers
     direction -1 -4.48946e-011 -4.97056e-027   
     length 0.414137   
     axis 3.17164e-015 -90 -90   XYZ
    dof rx
    limits (0.0 90.0)
  end
  begin
     id 30
     name rthumb
     direction -0.707107 -6.34859e-011 0.707107   
     length 0.59462   
     axis -90 -45 -2.85299e-015   XYZ
    dof rx rz
    limits (-45.0 45.0)
           (-45.0 45.0)
  end
:hierarchy
  begin
    root lhipjoint rhipjoint lowerback
    lhipjoint lfemur
    lfemur ltibia
    ltibia lfoot
    lfoot ltoes
    rhipjoint rfemur
    rfemur rtibia
    rtibia rfoot
    rfoot rtoes
    lowerback upperback
    upperback thorax
    thorax lowerneck lclavicle rclavicle
    lowerneck upperneck
    upperneck head
    lclavicle lhumerus
    lhumerus lradius
    lradius lwrist
    lwrist lhand lthumb
    lhand lfingers
    rclavicle rhumerus
    rhumerus rradius
    rradius rwrist
    rwrist rhand rthumb
    rhand rfingers
  end

#!OML:ASF E:\inclinewalkrobotboard\Project 1\Capture day 1\Session 1\subject1.ASF
:FULLY-SPECIFIED
:DEGREES
221
root 7.57309 16.3815 -13.9811 -169.897 -20.8054 -180.951
lowerback -4.73231 -1.49939 -6.7092
upperback 1.22229 -1.66143 1.94705
thorax 4.1886 -1.02335 5.67106
lowerneck -5.37396 -4.63389 -6.09884
upperneck 18.0253 -7.74534 6.73569
head 6.86035 -3.94178 2.53995
rclavicle -1.51076e-014 -1.70955e-014
rhumerus -43.6773 -22.8257 -75.3014
rradius 29.6089
rwrist 13.1866
rhand -20.9256 -45.1066
rfingers 7.12502
rthumb 5.44618 -75.0166
lclavicle -1.51076e-014 -1.70955e-014
lhumerus -42.8939 26.6344 59.2991
lradius 7.4116
lwrist -46.4816
lhand -39.9253 -17.6561
lfingers 7.12502
lthumb -12.8958 11.9255
rfemur -16.9183 3.55689 22.7191
rtibia 19.4553
rfoot -11.0202 2.14355
rtoes -13.8208
lfemur -16.5396 -9.56349 -18.5001
ltibia 51.1715
lfoot -4.39089 -7.49809
ltoes -39.3335
222
root 7.56571 16.3819 -13.9766 -169.938 -20.3235 -180.702
lowerback -4.73526 -1.48618 -6.57111
upperback 1.12486 -1.65396 1.94689
thorax 4.08216 -1.0094 5.5936
lowerneck -5.56769 -4.50664 -6.08212
upperneck 18.1856 -7.59395 6.80376
head 6.9371 -3.86127 2.5664
rclavicle 2.01766e-014 -6.95746e-015
rhumerus -43.7975 -23.3341 -74.5823
rradius 29.1399
rwrist 13.5749
rhand -20.9364 -45.5084
rfingers 7.12502
rthumb 5.43571 -75.4187
lclavicle 2.01766e-014 -6.95746e-015
lhumerus -42.2746 26.7076 60.3789
lradius 6.91828
lwrist -46.1788
lhand -40.2282 -17.2936
lfingers 7.12502
lthumb -13.1878 12.2693
rfemur -16.9416 3.50866 22.9128
rtibia 19.2603
rfoot -10.9072 2.72465
rtoes -16.7725
lfemur -16.4875 -9.83708 -18.2726
ltibia 50.423
lfoot -4.05559 -8.52724
ltoes -38.2914
223
root 7.55759 16.386 -13.9658 -169.896 -19.9244 -180.526
lowerback -4.51619 -1.4689 -6.42337
upperback 0.81559 -1.65883 1.92334
thorax 3.62938 -0.983289 5.49066
lowerneck -5.62844 -4.36996 -6.14718
upperneck 18.4893 -7.46711 6.90017
head 7.04209 -3.8067 2.61607
rclavicle -1.3418e-014 -1.98785e-016
rhumerus -44.3193 -23.8881 -73.5237
rradius 28.5286
rwrist 14.4369
rhand -21.077 -44.4204
rfingers 7.12502
rthumb 5.29995 -74.3341
lclavicle -1.3418e-014 -1.98785e-016
lhumerus -41.6653 26.6676 61.5194
lradius 6.44515
lwrist -45.6349
lhand -40.4762 -17.3715
lfingers 7.12502
lthumb -13.4268 12.1758
rfemur -17.0453 3.63862 22.9995
rtibia 19.0377
rfoot -10.6746 3.12421
rtoes -9.77065
lfemur -16.5152 -10.196 -18.1219
ltibia 49.8108
lfoot -3.87173 -9.50644
ltoes -38.1351
224
root 7.54207 16.3903 -13.9569 -169.962 -19.6138 -180.573
lowerback -4.74893 -1.5395 -6.52196
upperback 0.955416 -1.72812 1.89582
thorax 3.91982 -1.03351 5.50618
lowerneck -5.83845 -4.26573 -6.23773
upperneck 18.4358 -7.30177 7.02074
head 7.05781 -3.7142 2.68039
rclavicle 2.25869e-014 3.77691e-015
rhumerus -44.0782 -24.5324 -72.8117
rradius 28.0029
rwrist 15.435
rhand -20.6931 -43.7468
rfingers 7.12502
rthumb 5.67069 -73.651
lclavicle 2.25869e-014 3.77691e-015
lhumerus -40.3242 27.0547 63.0414
lradius 6.01448
lwrist -45.119
lhand -40.7981 -17.9631
lfingers 7.12502
lthumb -13.7371 11.5635
rfemur -16.8147 3.23449 22.9417
rtibia 18.6617
rfoot -10.5147 3.62475
rtoes -10.5135
lfemur -16.2605 -10.2474 -18.4514
ltibia 48.4262
lfoot -2.7958 -9.5233
ltoes -38.5634
225
root 7.53517 16.3939 -13.9404 -170.06 -19.2139 -180.499
lowerback -4.83182 -1.56449 -6.63734
upperback 0.929991 -1.74986 1.90767
thorax 3.94774 -1.04739 5.58115
lowerneck -5.69932 -4.10907 -6.28707
upperneck 18.3812 -7.10561 7.1131
head 7.00556 -3.62365 2.73932
rclavicle 3.03644e-014 -5.56597e-015
rhumerus -44.2345 -24.8175 -72.3274
rradius 27.9125
rwrist 15.6798
rhand -20.3879 -43.8255
rfingers 7.12502
rthumb 5.96534 -73.7215
lclavicle 3.03644e-014 -5.56597e-015
lhumerus -39.4077 27.2735 64.4405
lradius 6.11094
lwrist -44.693
lhand -41.0747 -18.3279
lfingers 7.12502
lthumb -14.0036 11.1804
rfemur -16.602 3.11688 23.0198
rtibia 18.2465
rfoot -10.4236 3.90598
rtoes -12.4038
lfemur -15.9899 -10.4082 -18.4382
ltibia 47.9157
lfoot -2.14782 -9.61979
ltoes -38.2895
226
root 7.52959 16.3958 -13.9179 -170.147 -18.7627 -180.336
lowerback -4.88204 -1.57024 -6.66969
upperback 0.826382 -1.75622 1.94692
thorax 3.87102 -1.04625 5.64052
lowerneck -5.58571 -3.92667 -6.23938
upperneck 18.4387 -6.88002 7.09108
head 6.98439 -3.52342 2.7462
rclavicle 2.09966e-014 3.18055e-015
rhumerus -44.4939 -24.796 -71.9819
rradius 27.9552
rwrist 15.4003
rhand -20.4207 -44.1394
rfingers 7.12502
rthumb 5.93365 -74.0364
lclavicle 2.09966e-014 3.18055e-015
lhumerus -38.7107 27.4816 65.8243
lradius 6.66467
lwrist -44.3726
lhand -41.0753 -18.4416
lfingers 7.12502
lthumb -14.0042 11.0667
rfemur -16.4262 3.48548 23.1149
rtibia 17.8206
rfoot -10.2988 4.00918
rtoes -9.16249
lfemur -15.6908 -10.4265 -18.2938
ltibia 47.3156
lfoot -1.67644 -9.62809
ltoes -37.5514
